<?xml version="1.0" encoding="utf-8"?>
<!-- Generator: Adobe Illustrator 13.0.0, SVG Export Plug-In . SVG Version: 6.00 Build 14948)  -->
<!DOCTYPE svg PUBLIC "-//W3C//DTD SVG 1.1//EN" "http://www.w3.org/Graphics/SVG/1.1/DTD/svg11.dtd">
<svg version="1.1" id="Layer_1" xmlns="http://www.w3.org/2000/svg" xmlns:xlink="http://www.w3.org/1999/xlink" x="0px" y="0px"
	 width="141.734px" height="187.086px" viewBox="0 0 141.734 187.086" enable-background="new 0 0 141.734 187.086"
	 xml:space="preserve">
<g>
	<polygon fill-rule="evenodd" clip-rule="evenodd" points="75.94,106.054 75.94,0 60.497,0 60.497,106.054 75.94,106.054 
		75.94,106.054 	"/>
	<path fill-rule="evenodd" clip-rule="evenodd" d="M49.151,0h8.195l0,0c0,49.166-1.261,61.143-8.825,75.641
		c-7.563,14.498-28.68,28.837-46.645,30.414l0,0V89.85l0,0c13.552-2.207,25.844-9.482,36.56-25.556
		C49.151,48.221,49.466,10.085,49.151,0L49.151,0L49.151,0L49.151,0z"/>
	<path fill-rule="evenodd" clip-rule="evenodd" d="M87.286,0h-8.194l0,0c0,49.166,1.261,61.143,8.824,75.641
		c7.564,14.498,28.681,28.837,46.646,30.414l0,0V89.85l0,0c-13.552-2.207-25.844-9.482-36.56-25.556S86.972,10.085,87.286,0
		L87.286,0L87.286,0L87.286,0z"/>
	<polygon fill-rule="evenodd" clip-rule="evenodd" points="134.31,163.552 134.31,115.66 127.138,115.66 127.138,163.552 
		134.31,163.552 134.31,163.552 	"/>
	<polygon fill-rule="evenodd" clip-rule="evenodd" points="30.812,115.66 30.812,122.833 40.76,122.833 40.76,163.552 
		47.933,163.552 47.933,122.833 57.881,122.833 57.881,115.66 30.812,115.66 30.812,115.66 	"/>
	<path fill-rule="evenodd" clip-rule="evenodd" d="M100.222,125.03v38.522h-7.173v-40.72l0,0c0-4.975,1.967-7.173,7.057-7.173l0,0
		h7.751l0,0c5.784,0,12.841,4.396,12.841,13.998c0,9.602-5.321,12.03-8.098,13.534c-1.619,1.157-1.272,2.083-0.578,3.587l0,0
		l11.221,16.773l-8.387-0.058l-10.99-16.543l0,0c-2.024-3.297-1.099-6.767,1.1-7.924c1.65-0.869,8.561-2.776,8.561-8.908
		c0-5.899-3.587-7.287-6.363-7.287l0,0h-4.858l0,0C100.916,122.833,100.222,123.411,100.222,125.03L100.222,125.03L100.222,125.03
		L100.222,125.03z"/>
	<path fill-rule="evenodd" clip-rule="evenodd" d="M77.085,120.403c-1.272-4.396-3.934-4.743-5.784-4.743
		c-1.851,0-4.512,0.347-5.784,4.743l0,0L53.37,163.552h7.404l3.355-12.03h14.344l3.355,12.03h7.403L77.085,120.403L77.085,120.403
		L77.085,120.403z M66.095,144.581l5.206-18.162l5.206,18.162H66.095L66.095,144.581L66.095,144.581z"/>
	<path fill-rule="evenodd" clip-rule="evenodd" d="M23.715,120.403c-1.272-4.396-3.933-4.743-5.784-4.743s-4.512,0.347-5.784,4.743
		l0,0L0,163.552h7.404l3.355-12.03h14.345l3.355,12.03h7.404L23.715,120.403L23.715,120.403L23.715,120.403z M12.726,144.581
		l5.206-18.162l5.206,18.162H12.726L12.726,144.581L12.726,144.581z"/>
	<path fill-rule="evenodd" clip-rule="evenodd" d="M2.778,174.958c-1.205,1.313-1.808,3.081-1.808,5.305
		c0,2.229,0.618,3.983,1.853,5.261c1.132,1.018,2.485,1.526,4.058,1.526c1.217,0,2.22-0.223,3.01-0.668
		c0.47-0.26,1.009-0.724,1.618-1.392l0,0l0.434,1.708H13.1v-7.104H7.27v1.491h4.158l0,0c-0.018,1.555-0.42,2.681-1.207,3.376
		c-0.787,0.696-1.779,1.044-2.978,1.044c-1.566,0-2.696-0.495-3.389-1.487c-0.693-0.99-1.039-2.275-1.039-3.854
		c0-1.825,0.42-3.199,1.26-4.121c0.841-0.922,1.875-1.383,3.105-1.383c1.036,0,1.895,0.222,2.576,0.664
		c0.681,0.443,1.13,1.149,1.347,2.12l0,0h1.78l0,0c-0.295-1.735-1.103-2.949-2.422-3.643c-0.91-0.481-1.988-0.723-3.235-0.723
		C5.405,173.079,3.923,173.705,2.778,174.958L2.778,174.958L2.778,174.958L2.778,174.958z"/>
	<path fill-rule="evenodd" clip-rule="evenodd" d="M38.901,173.421h-2.034l-4.998,13.277h1.844l1.437-3.978h5.251l1.347,3.978h1.97
		L38.901,173.421L38.901,173.421L38.901,173.421z M35.666,181.257l2.142-5.865l2.016,5.865H35.666L35.666,181.257L35.666,181.257z"
		/>
	<path fill-rule="evenodd" clip-rule="evenodd" d="M62.434,186.699v-13.277h2.576l3.814,11.226l3.787-11.226h2.549v13.277h-1.708
		v-7.837l0,0c0-0.271,0.006-0.719,0.018-1.346c0.013-0.627,0.019-1.299,0.019-2.016l0,0L69.7,186.699h-1.78L64.106,175.5v0.406l0,0
		c0,0.325,0.007,0.821,0.023,1.487c0.015,0.666,0.022,1.155,0.022,1.468l0,0v7.837H62.434L62.434,186.699L62.434,186.699z"/>
	<polygon fill-rule="evenodd" clip-rule="evenodd" points="95.189,186.699 95.189,173.421 104.869,173.421 104.869,175.048 
		96.943,175.048 96.943,179.08 104.272,179.08 104.272,180.616 96.943,180.616 96.943,185.117 105.005,185.117 105.005,186.699 
		95.189,186.699 95.189,186.699 	"/>
	<path fill-rule="evenodd" clip-rule="evenodd" d="M123.974,182.415h1.69l0,0c0.042,0.753,0.22,1.364,0.533,1.834
		c0.596,0.88,1.647,1.32,3.154,1.32c0.675,0,1.289-0.097,1.844-0.289c1.072-0.374,1.608-1.043,1.608-2.007
		c0-0.723-0.226-1.238-0.678-1.546c-0.458-0.301-1.175-0.563-2.151-0.786l0,0l-1.798-0.406l0,0
		c-1.176-0.266-2.007-0.558-2.495-0.877c-0.844-0.554-1.266-1.383-1.266-2.485c0-1.193,0.413-2.172,1.238-2.938
		c0.825-0.765,1.994-1.147,3.507-1.147c1.392,0,2.574,0.336,3.548,1.008c0.973,0.672,1.46,1.746,1.46,3.222l0,0h-1.69l0,0
		c-0.091-0.711-0.283-1.256-0.578-1.636c-0.549-0.693-1.479-1.039-2.793-1.039c-1.061,0-1.823,0.223-2.287,0.668
		c-0.464,0.446-0.695,0.965-0.695,1.555c0,0.651,0.271,1.127,0.813,1.429c0.354,0.192,1.159,0.434,2.413,0.723l0,0l1.861,0.425l0,0
		c0.897,0.205,1.591,0.485,2.079,0.841c0.843,0.62,1.265,1.521,1.265,2.702c0,1.471-0.534,2.521-1.604,3.154
		c-1.07,0.632-2.313,0.948-3.729,0.948c-1.651,0-2.943-0.422-3.877-1.265C124.413,184.984,123.955,183.848,123.974,182.415
		L123.974,182.415L123.974,182.415L123.974,182.415z"/>
	<path fill-rule="evenodd" clip-rule="evenodd" d="M141.337,109.602c-0.266-0.463-0.63-0.826-1.094-1.09s-0.959-0.396-1.484-0.396
		c-0.523,0-1.017,0.132-1.482,0.396c-0.465,0.264-0.829,0.627-1.094,1.09c-0.264,0.463-0.396,0.96-0.396,1.49
		c0,0.54,0.138,1.042,0.412,1.507c0.274,0.466,0.64,0.825,1.096,1.081c0.455,0.256,0.943,0.383,1.464,0.383s1.009-0.127,1.466-0.383
		s0.822-0.615,1.098-1.081c0.274-0.465,0.412-0.967,0.412-1.507C141.734,110.562,141.602,110.065,141.337,109.602L141.337,109.602
		L141.337,109.602L141.337,109.602z M140.936,112.374c-0.234,0.394-0.544,0.699-0.932,0.915c-0.387,0.215-0.802,0.323-1.245,0.323
		s-0.858-0.108-1.245-0.323c-0.387-0.216-0.696-0.521-0.93-0.915c-0.232-0.395-0.349-0.821-0.349-1.281
		c0-0.451,0.112-0.873,0.336-1.266c0.225-0.393,0.533-0.701,0.928-0.926c0.394-0.225,0.814-0.336,1.26-0.336s0.866,0.111,1.26,0.336
		c0.395,0.225,0.703,0.533,0.928,0.926c0.224,0.393,0.336,0.814,0.336,1.266C141.284,111.552,141.169,111.979,140.936,112.374
		L140.936,112.374L140.936,112.374L140.936,112.374z"/>
	<path fill-rule="evenodd" clip-rule="evenodd" d="M139.594,111.811c-0.145-0.268-0.28-0.44-0.408-0.521
		c0.243-0.104,0.424-0.25,0.542-0.44s0.178-0.391,0.178-0.601c0-0.181-0.043-0.349-0.127-0.502
		c-0.085-0.154-0.199-0.273-0.346-0.356c-0.146-0.083-0.36-0.125-0.645-0.125l0,0h-1.168v3.673h0.578v-1.544h0.431l0,0
		c0.06,0,0.158,0.12,0.293,0.358l0,0l0.119,0.228l0.502,0.958h0.658L139.594,111.811L139.594,111.811L139.594,111.811z
		 M138.6,110.955h-0.401v-1.244h0.438l0,0c0.202,0,0.345,0.028,0.425,0.083c0.081,0.056,0.143,0.125,0.185,0.209
		c0.042,0.083,0.063,0.176,0.063,0.279c0,0.169-0.052,0.323-0.155,0.463C139.049,110.884,138.865,110.955,138.6,110.955
		L138.6,110.955L138.6,110.955L138.6,110.955z"/>
</g>
</svg>
